<svg width="47" height="44" viewBox="0 0 47 44" fill="none" xmlns="http://www.w3.org/2000/svg">
<path d="M4.02 43.24C2.82 43.24 1.8 43.16 0.96 43V37C1.6 37.16 2.32 37.24 3.12 37.24C4.44 37.24 5.42 36.92 6.06 36.28C6.7 35.6 7.02 34.58 7.02 33.22V0.999997H13.62V33.04C13.62 36.48 12.82 39.04 11.22 40.72C9.66 42.4 7.26 43.24 4.02 43.24ZM36.6389 43.6C33.4789 43.6 31.0589 42.7 29.3789 40.9C27.7389 39.1 26.9189 36.56 26.9189 33.28V10.72C26.9189 7.44 27.7389 4.9 29.3789 3.1C31.0589 1.3 33.4789 0.399998 36.6389 0.399998C39.7989 0.399998 42.1989 1.3 43.8389 3.1C45.5189 4.9 46.3589 7.44 46.3589 10.72V15.16H40.1189V10.3C40.1189 7.7 39.0189 6.4 36.8189 6.4C34.6189 6.4 33.5189 7.7 33.5189 10.3V33.76C33.5189 36.32 34.6189 37.6 36.8189 37.6C39.0189 37.6 40.1189 36.32 40.1189 33.76V27.34H46.3589V33.28C46.3589 36.56 45.5189 39.1 43.8389 40.9C42.1989 42.7 39.7989 43.6 36.6389 43.6Z" fill="#36382E"/>
</svg>
